<?xml version="1.0" standalone="no"?><!-- Generator: Gravit.io --><svg xmlns="http://www.w3.org/2000/svg" xmlns:xlink="http://www.w3.org/1999/xlink" style="isolation:isolate" viewBox="0 0 600 700" width="600" height="700"><defs><clipPath id="_clipPath_3tmLEBmFqohEhfV037WwCp8Ax572xnik"><rect width="600" height="700"/></clipPath></defs><g clip-path="url(#_clipPath_3tmLEBmFqohEhfV037WwCp8Ax572xnik)"><g><g><circle vector-effect="non-scaling-stroke" cx="298.8054875061235" cy="377.1866731994118" r="290.5" fill="rgb(236,242,255)"/><circle vector-effect="non-scaling-stroke" cx="298.8054875061234" cy="377.18667319941176" r="233.57059551913065" fill="rgb(208,222,253)"/><circle vector-effect="non-scaling-stroke" cx="298.8054875061234" cy="377.1866731994118" r="176.8133268005882" fill="rgb(171,196,251)"/><path d="M 213.335 68.505 L 551.803 68.505 C 560.933 68.505 568.345 75.917 568.345 85.046 L 568.345 657.999 C 568.345 667.129 560.933 674.541 551.803 674.541 L 213.335 674.541 C 204.206 674.541 196.794 667.129 196.794 657.999 L 196.794 85.046 C 196.794 75.917 204.206 68.505 213.335 68.505 Z" style="stroke:none;fill:#AE1F1F;stroke-miterlimit:10;"/><rect x="15.611" y="650.753" width="566.389" height="47.577" transform="matrix(1,0,0,1,0,0)" fill="rgb(77,51,51)"/><rect x="224.042" y="108.152" width="74.763" height="87.224" transform="matrix(1,0,0,1,0,0)" fill="rgb(156,110,255)"/><rect x="346.382" y="108.152" width="74.763" height="87.224" transform="matrix(1,0,0,1,0,0)" fill="rgb(156,110,255)"/><rect x="468.722" y="108.152" width="74.763" height="87.224" transform="matrix(1,0,0,1,0,0)" fill="rgb(156,110,255)"/><rect x="224.042" y="240.687" width="74.763" height="87.224" transform="matrix(1,0,0,1,0,0)" fill="rgb(156,110,255)"/><rect x="346.382" y="240.687" width="74.763" height="87.224" transform="matrix(1,0,0,1,0,0)" fill="rgb(156,110,255)"/><rect x="468.722" y="240.687" width="74.763" height="87.224" transform="matrix(1,0,0,1,0,0)" fill="rgb(156,110,255)"/><rect x="224.042" y="377.187" width="74.763" height="87.224" transform="matrix(1,0,0,1,0,0)" fill="rgb(156,110,255)"/><rect x="346.382" y="377.187" width="74.763" height="87.224" transform="matrix(1,0,0,1,0,0)" fill="rgb(156,110,255)"/><rect x="468.722" y="377.187" width="74.763" height="87.224" transform="matrix(1,0,0,1,0,0)" fill="rgb(156,110,255)"/><rect x="224.042" y="509.722" width="74.763" height="87.224" transform="matrix(1,0,0,1,0,0)" fill="rgb(156,110,255)"/><rect x="346.382" y="509.722" width="74.763" height="141.031" transform="matrix(1,0,0,1,0,0)" fill="rgb(164,129,56)"/><path d=" M 346.382 509.722 L 421.146 509.722 L 346.382 650.753 L 346.382 509.722 Z " fill="rgb(172,146,90)"/><rect x="468.722" y="509.722" width="74.763" height="87.224" transform="matrix(1,0,0,1,0,0)" fill="rgb(156,110,255)"/><rect x="466.37" y="546.974" width="11.13" height="127.567" transform="matrix(1,0,0,1,0,0)" fill="rgb(142,31,31)"/><circle vector-effect="non-scaling-stroke" cx="471.9346505723571" cy="521.2353641263198" r="77.2147859783529" fill="rgb(48,202,94)"/><circle vector-effect="non-scaling-stroke" cx="468.6351770522473" cy="515.8804133446164" r="67.1886704378428" fill="rgb(40,240,100)"/></g><path d=" M 230.697 163.658 L 246.556 143.834 L 262.415 124.011" fill="none" vector-effect="non-scaling-stroke" stroke-width="6" stroke="rgb(206,158,249)" stroke-linejoin="miter" stroke-linecap="round" stroke-miterlimit="3"/><path d=" M 246.556 170.455 L 254.486 160.543 L 262.415 150.631" fill="none" vector-effect="non-scaling-stroke" stroke-width="6" stroke="rgb(206,158,249)" stroke-linejoin="miter" stroke-linecap="round" stroke-miterlimit="3"/><path d=" M 230.697 295.06 L 246.556 275.237 L 262.415 255.413" fill="none" vector-effect="non-scaling-stroke" stroke-width="6" stroke="rgb(206,158,249)" stroke-linejoin="miter" stroke-linecap="round" stroke-miterlimit="3"/><path d=" M 246.556 301.857 L 254.486 291.945 L 262.415 282.033" fill="none" vector-effect="non-scaling-stroke" stroke-width="6" stroke="rgb(206,158,249)" stroke-linejoin="miter" stroke-linecap="round" stroke-miterlimit="3"/><path d=" M 230.697 426.463 L 246.556 406.639 L 262.415 386.815" fill="none" vector-effect="non-scaling-stroke" stroke-width="6" stroke="rgb(206,158,249)" stroke-linejoin="miter" stroke-linecap="round" stroke-miterlimit="3"/><path d=" M 246.556 433.259 L 254.486 423.347 L 262.415 413.436" fill="none" vector-effect="non-scaling-stroke" stroke-width="6" stroke="rgb(206,158,249)" stroke-linejoin="miter" stroke-linecap="round" stroke-miterlimit="3"/><path d=" M 230.697 563.529 L 246.556 543.705 L 262.415 523.881" fill="none" vector-effect="non-scaling-stroke" stroke-width="6" stroke="rgb(206,158,249)" stroke-linejoin="miter" stroke-linecap="round" stroke-miterlimit="3"/><path d=" M 246.556 570.325 L 254.486 560.414 L 262.415 550.502" fill="none" vector-effect="non-scaling-stroke" stroke-width="6" stroke="rgb(206,158,249)" stroke-linejoin="miter" stroke-linecap="round" stroke-miterlimit="3"/><path d=" M 355.303 154.596 L 371.162 134.772 L 387.021 114.949" fill="none" vector-effect="non-scaling-stroke" stroke-width="6" stroke="rgb(206,158,249)" stroke-linejoin="miter" stroke-linecap="round" stroke-miterlimit="3"/><path d=" M 359.834 426.463 L 375.693 406.639 L 391.552 386.815" fill="none" vector-effect="non-scaling-stroke" stroke-width="6" stroke="rgb(206,158,249)" stroke-linejoin="miter" stroke-linecap="round" stroke-miterlimit="3"/><path d=" M 355.303 295.06 L 371.162 275.237 L 387.021 255.413" fill="none" vector-effect="non-scaling-stroke" stroke-width="6" stroke="rgb(206,158,249)" stroke-linejoin="miter" stroke-linecap="round" stroke-miterlimit="3"/><path d=" M 481.041 149.64 L 492.935 134.772 L 504.829 119.904" fill="none" vector-effect="non-scaling-stroke" stroke-width="6" stroke="rgb(206,158,249)" stroke-linejoin="miter" stroke-linecap="round" stroke-miterlimit="3"/><path d=" M 475.377 282.033 L 487.271 267.166 L 499.166 252.298" fill="none" vector-effect="non-scaling-stroke" stroke-width="6" stroke="rgb(206,158,249)" stroke-linejoin="miter" stroke-linecap="round" stroke-miterlimit="3"/><path d=" M 481.041 413.436 L 492.935 398.568 L 504.829 383.7" fill="none" vector-effect="non-scaling-stroke" stroke-width="6" stroke="rgb(206,158,249)" stroke-linejoin="miter" stroke-linecap="round" stroke-miterlimit="3"/><rect x="290.805" y="1.671" width="5.664" height="86.091" transform="matrix(1,0,0,1,0,0)" fill="rgb(174,31,31)"/><path d="M 289.149 8.144 L 298.125 8.144 C 298.911 8.144 299.549 8.782 299.549 9.568 L 299.549 56.886 C 299.549 57.672 298.911 58.31 298.125 58.31 L 289.149 58.31 C 288.363 58.31 287.726 57.672 287.726 56.886 L 287.726 9.568 C 287.726 8.782 288.363 8.144 289.149 8.144 Z" style="stroke:none;fill:#AE1F1F;stroke-miterlimit:10;"/><rect x="430.633" y="19.573" width="5.664" height="52.33" transform="matrix(1,0,0,1,0,0)" fill="rgb(174,31,31)"/><path d="M 426.569 1.671 L 440.36 1.671 C 441.243 1.671 441.96 2.388 441.96 3.271 L 441.96 52.4 C 441.96 53.283 441.243 54.001 440.36 54.001 L 426.569 54.001 C 425.686 54.001 424.969 53.283 424.969 52.4 L 424.969 3.271 C 424.969 2.388 425.686 1.671 426.569 1.671 Z" style="stroke:none;fill:#AE1F1F;stroke-miterlimit:10;"/><g><path d=" M 81.47 636.509 Q 86.902 643.119 104.049 647.277 L 327.602 647.277 Q 339.909 634.879 339.909 619.169 C 339.909 611.896 331.008 608.093 324.526 604.204 Q 306.579 593.436 262.497 586.864 Q 234.838 569.735 217.885 565.327 C 190.718 558.264 155.006 561.674 139.43 569.942 Q 123.855 578.211 104.049 593.017 Q 83.777 596.512 79.931 598.051 Q 76.086 599.589 75.316 619.169 Q 77.798 632.041 81.47 636.509 Z " fill="rgb(30,15,59)"/><circle vector-effect="non-scaling-stroke" cx="133.77297161777858" cy="631.1248388510063" r="24.61326258079353" fill="rgb(38,33,33)"/><circle vector-effect="non-scaling-stroke" cx="133.77297161777898" cy="631.1248388510076" r="19.99827584689475" fill="rgb(151,130,130)"/><circle vector-effect="non-scaling-stroke" cx="133.77297161777807" cy="631.1248388510049" r="16.152453568645775" fill="rgb(100,78,78)"/><circle vector-effect="non-scaling-stroke" cx="301.45082294943427" cy="631.1248388510063" r="24.61326258079356" fill="rgb(38,33,33)"/><circle vector-effect="non-scaling-stroke" cx="301.45082294943506" cy="631.1248388510076" r="19.998275846894728" fill="rgb(151,130,130)"/><circle vector-effect="non-scaling-stroke" cx="301.45082294943336" cy="631.1248388510049" r="16.152453568645797" fill="rgb(100,78,78)"/><path d=" M 215.516 569.487 C 194.364 564.963 165.002 567.325 154.503 572.149 Q 144.003 576.974 135.311 587.633 L 135.311 595.743 L 267.608 595.743 Q 236.249 573.922 215.516 569.487 Z " fill="rgb(152,171,204)"/></g><g><rect x="106.092" y="509.722" width="15.859" height="164.819" transform="matrix(1,0,0,1,0,0)" fill="rgb(142,31,31)"/><circle vector-effect="non-scaling-stroke" cx="114.02106810387062" cy="473.0480156785894" r="110.02106810387068" fill="rgb(48,202,94)"/><circle vector-effect="non-scaling-stroke" cx="109.3486194161495" cy="467.73824895354323" r="100.25085742283187" fill="rgb(40,240,100)"/></g></g></g></svg>