<?xml version="1.0" standalone="no"?><!-- Generator: Gravit.io --><svg xmlns="http://www.w3.org/2000/svg" xmlns:xlink="http://www.w3.org/1999/xlink" style="isolation:isolate" viewBox="0 0 720 720" width="720" height="720"><defs><clipPath id="_clipPath_NENUoHle5C1VCbhdyVndQaDOmHSdF5aK"><rect width="720" height="720"/></clipPath></defs><g clip-path="url(#_clipPath_NENUoHle5C1VCbhdyVndQaDOmHSdF5aK)"><g><path d="M 191.728 154 L 490.522 154 C 498.582 154 505.125 160.543 505.125 168.603 L 505.125 674.397 C 505.125 682.457 498.582 689 490.522 689 L 191.728 689 C 183.668 689 177.125 682.457 177.125 674.397 L 177.125 168.603 C 177.125 160.543 183.668 154 191.728 154 Z" style="stroke:none;fill:#DFD3D3;stroke-miterlimit:10;"/><rect x="16.125" y="668" width="500" height="42" transform="matrix(1,0,0,1,0,0)" fill="rgb(235,235,235)"/><rect x="200.125" y="189" width="66" height="77" transform="matrix(1,0,0,1,0,0)" fill="rgb(235,235,235)"/><rect x="308.125" y="189" width="66" height="77" transform="matrix(1,0,0,1,0,0)" fill="rgb(235,235,235)"/><rect x="416.125" y="189" width="66" height="77" transform="matrix(1,0,0,1,0,0)" fill="rgb(235,235,235)"/><rect x="200.125" y="306" width="66" height="77" transform="matrix(1,0,0,1,0,0)" fill="rgb(235,235,235)"/><rect x="308.125" y="306" width="66" height="77" transform="matrix(1,0,0,1,0,0)" fill="rgb(235,235,235)"/><rect x="416.125" y="306" width="66" height="77" transform="matrix(1,0,0,1,0,0)" fill="rgb(235,235,235)"/><rect x="200.125" y="426.5" width="66" height="77" transform="matrix(1,0,0,1,0,0)" fill="rgb(235,235,235)"/><rect x="308.125" y="426.5" width="66" height="77" transform="matrix(1,0,0,1,0,0)" fill="rgb(235,235,235)"/><rect x="416.125" y="426.5" width="66" height="77" transform="matrix(1,0,0,1,0,0)" fill="rgb(235,235,235)"/><rect x="200.125" y="543.5" width="66" height="77" transform="matrix(1,0,0,1,0,0)" fill="rgb(235,235,235)"/><rect x="308.125" y="543.5" width="66" height="77" transform="matrix(1,0,0,1,0,0)" fill="rgb(235,235,235)"/><rect x="416.125" y="543.5" width="66" height="77" transform="matrix(1,0,0,1,0,0)" fill="rgb(235,235,235)"/><rect x="97.125" y="543.5" width="14" height="145.5" transform="matrix(1,0,0,1,0,0)" fill="rgb(235,235,235)"/><circle vector-effect="non-scaling-stroke" cx="104.12500000000001" cy="511.1250000000001" r="97.12500000000001" fill="rgb(137,185,151)"/><rect x="414.048" y="576.385" width="9.825" height="102.115" transform="matrix(1,0,0,1,0,0)" fill="rgb(235,235,235)"/><circle vector-effect="non-scaling-stroke" cx="418.96090909090884" cy="553.6640909090908" r="68.16409090909093" fill="rgb(137,185,151)"/></g></g></svg>