<?xml version="1.0" standalone="no"?><!-- Generator: Gravit.io --><svg xmlns="http://www.w3.org/2000/svg" xmlns:xlink="http://www.w3.org/1999/xlink" style="isolation:isolate" viewBox="0 0 400 500" width="400" height="500"><defs><clipPath id="_clipPath_7rr6bux3V0nkoGdR3C0JhhW8YOBoxu0W"><rect width="400" height="500"/></clipPath></defs><g clip-path="url(#_clipPath_7rr6bux3V0nkoGdR3C0JhhW8YOBoxu0W)"><g><path d=" M 294.333 444.537 L 341.5 417.305 L 341.5 253.915 L 294.333 281.147 L 294.333 444.537 Z " fill="rgb(205,131,131)"/><path d=" M 152.833 36.061 L 152.833 362.842 L 294.333 444.537 L 294.333 281.147 L 200 226.683 L 200 63.293 L 152.833 36.061 Z " fill="rgb(171,49,49)"/><path d=" M 152.833 36.061 L 200 8.83 L 247.167 36.061 L 200 63.293 L 152.833 36.061 Z " fill="rgb(232,200,200)"/><path d=" M 200 63.293 L 247.167 36.061 L 247.167 199.451 L 200 226.683 L 200 63.293 Z " fill="rgb(205,131,131)"/><path d=" M 200 226.683 L 247.167 199.451 L 341.5 253.915 L 294.333 281.147 L 200 226.683 Z " fill="rgb(232,200,200)"/><path d=" M 247.167 471.768 L 294.333 444.537 L 294.333 281.147 L 247.167 308.378 L 247.167 471.768 Z " fill="rgb(205,168,131)"/><path d=" M 105.667 63.293 L 105.667 390.073 L 200 499 L 247.167 308.378 L 152.833 253.915 L 152.833 90.525 L 105.667 63.293 Z " fill="rgb(171,49,49)"/><path d=" M 105.667 63.293 L 152.833 36.061 L 200 63.293 L 152.833 90.525 L 105.667 63.293 Z " fill="rgb(232,221,200)"/><path d=" M 152.833 90.525 L 200 63.293 L 200 226.683 L 152.833 253.915 L 152.833 90.525 Z " fill="rgb(205,168,131)"/><path d=" M 152.833 253.915 L 200 226.683 L 294.333 281.147 L 247.167 308.378 L 152.833 253.915 Z " fill="rgb(232,221,200)"/><path d=" M 200 499 L 247.167 471.768 L 247.167 308.378 L 200 335.61 L 200 499 Z " fill="rgb(205,131,131)"/><path d=" M 58.5 90.525 L 58.5 417.305 L 200 499 L 200 335.61 L 105.667 281.146 L 105.667 117.756 L 58.5 90.525 Z " fill="rgb(171,49,49)"/><path d=" M 58.5 90.525 L 105.667 63.293 L 152.833 90.525 L 105.667 117.756 L 58.5 90.525 Z " fill="rgb(232,200,200)"/><path d=" M 105.667 335.61 L 105.667 390.073 L 152.833 362.842 L 105.667 335.61 Z " fill="rgb(205,131,131)"/><path d=" M 152.833 417.305 L 152.833 362.842 L 105.667 390.073 L 152.833 417.305 Z " fill="rgb(232,200,200)"/><path d=" M 105.667 117.756 L 152.833 90.525 L 152.833 253.915 L 105.667 281.146 L 105.667 117.756 Z " fill="rgb(205,131,131)"/><path d=" M 105.667 281.146 L 152.833 253.915 L 247.167 308.378 L 200 335.61 L 105.667 281.146 Z " fill="rgb(232,200,200)"/></g></g></svg>