<?xml version="1.0" standalone="no"?><!-- Generator: Gravit.io --><svg xmlns="http://www.w3.org/2000/svg" xmlns:xlink="http://www.w3.org/1999/xlink" style="isolation:isolate" viewBox="0 0 600 700" width="600" height="700"><defs><clipPath id="_clipPath_8NCbhVIhXtWclnDqOzMMeXW0d3icbhO1"><rect width="600" height="700"/></clipPath></defs><g clip-path="url(#_clipPath_8NCbhVIhXtWclnDqOzMMeXW0d3icbhO1)"><g><g><circle vector-effect="non-scaling-stroke" cx="298.80548750612337" cy="405.65188633023064" r="290.49999999999994" fill="rgb(236,242,255)"/><circle vector-effect="non-scaling-stroke" cx="298.80548750612337" cy="405.65188633023064" r="235.34811366976936" fill="rgb(207,220,247)"/><circle vector-effect="non-scaling-stroke" cx="298.80548750612354" cy="405.6518863302307" r="167.56451249387663" fill="rgb(175,192,230)"/><path d=" M 213.335 68.505 L 551.803 68.505 C 560.933 68.505 568.345 75.917 568.345 85.046 L 568.345 657.999 C 568.345 667.129 560.933 674.541 551.803 674.541 L 213.335 674.541 C 204.206 674.541 196.794 667.129 196.794 657.999 L 196.794 85.046 C 196.794 75.917 204.206 68.505 213.335 68.505 Z " fill="rgb(174,31,31)"/><rect x="15.611" y="650.753" width="566.389" height="47.577" transform="matrix(1,0,0,1,0,0)" fill="rgb(77,51,51)"/><rect x="224.042" y="108.152" width="74.763" height="87.224" transform="matrix(1,0,0,1,0,0)" fill="rgb(156,110,255)"/><rect x="346.382" y="108.152" width="74.763" height="87.224" transform="matrix(1,0,0,1,0,0)" fill="rgb(156,110,255)"/><rect x="468.722" y="108.152" width="74.763" height="87.224" transform="matrix(1,0,0,1,0,0)" fill="rgb(156,110,255)"/><rect x="224.042" y="240.687" width="74.763" height="87.224" transform="matrix(1,0,0,1,0,0)" fill="rgb(156,110,255)"/><rect x="346.382" y="240.687" width="74.763" height="87.224" transform="matrix(1,0,0,1,0,0)" fill="rgb(156,110,255)"/><rect x="468.722" y="240.687" width="74.763" height="87.224" transform="matrix(1,0,0,1,0,0)" fill="rgb(156,110,255)"/><rect x="224.042" y="377.187" width="74.763" height="87.224" transform="matrix(1,0,0,1,0,0)" fill="rgb(156,110,255)"/><rect x="346.382" y="377.187" width="74.763" height="87.224" transform="matrix(1,0,0,1,0,0)" fill="rgb(156,110,255)"/><rect x="468.722" y="377.187" width="74.763" height="87.224" transform="matrix(1,0,0,1,0,0)" fill="rgb(156,110,255)"/><rect x="224.042" y="509.722" width="74.763" height="87.224" transform="matrix(1,0,0,1,0,0)" fill="rgb(156,110,255)"/><rect x="346.382" y="509.722" width="74.763" height="141.031" transform="matrix(1,0,0,1,0,0)" fill="rgb(164,129,56)"/><path d=" M 346.382 509.722 L 421.146 509.722 L 346.382 650.753 L 346.382 509.722 L 346.382 509.722 Z " fill="rgb(172,146,90)"/><rect x="468.722" y="509.722" width="74.763" height="87.224" transform="matrix(1,0,0,1,0,0)" fill="rgb(156,110,255)"/><rect x="466.37" y="546.974" width="11.13" height="127.567" transform="matrix(1,0,0,1,0,0)" fill="rgb(142,31,31)"/><circle vector-effect="non-scaling-stroke" cx="471.9346505723571" cy="521.2353641263198" r="77.2147859783529" fill="rgb(48,202,94)"/><circle vector-effect="non-scaling-stroke" cx="468.6351770522473" cy="515.8804133446164" r="67.1886704378428" fill="rgb(40,240,100)"/></g><path d=" M 233.04 165.53 C 232.54 166.15 231.82 166.55 231.03 166.64 C 230.24 166.73 229.44 166.5 228.82 166 C 228.2 165.5 227.8 164.78 227.72 163.99 C 227.63 163.2 227.86 162.4 228.35 161.78 L 244.21 141.96 L 260.07 122.14 C 260.57 121.52 261.29 121.12 262.08 121.03 C 262.87 120.94 263.67 121.17 264.29 121.67 C 264.91 122.17 265.31 122.89 265.4 123.68 C 265.48 124.47 265.25 125.26 264.76 125.89 L 248.9 145.71 L 233.04 165.53 Z " fill="rgb(206,158,249)"/><path d=" M 260.07 148.76 C 260.57 148.14 261.29 147.74 262.08 147.65 C 262.87 147.56 263.67 147.79 264.29 148.29 C 264.91 148.79 265.31 149.51 265.4 150.3 C 265.48 151.09 265.25 151.88 264.76 152.5 L 256.83 162.42 L 248.9 172.33 C 248.4 172.95 247.68 173.35 246.89 173.44 C 246.1 173.52 245.3 173.29 244.68 172.8 C 244.06 172.3 243.66 171.58 243.57 170.79 C 243.49 170 243.72 169.2 244.21 168.58 L 252.14 158.67 L 260.07 148.76 Z " fill="rgb(206,158,249)"/><path d=" M 260.07 253.54 C 260.57 252.92 261.29 252.52 262.08 252.43 C 262.87 252.34 263.67 252.57 264.29 253.07 C 264.91 253.57 265.31 254.29 265.4 255.08 C 265.48 255.87 265.25 256.67 264.76 257.29 L 248.9 277.11 L 233.04 296.93 C 232.54 297.56 231.82 297.95 231.03 298.04 C 230.24 298.13 229.44 297.9 228.82 297.4 C 228.2 296.91 227.8 296.18 227.72 295.39 C 227.63 294.6 227.86 293.81 228.35 293.19 L 244.21 273.36 L 260.07 253.54 Z " fill="rgb(206,158,249)"/><path d=" M 260.07 280.16 C 260.57 279.54 261.29 279.14 262.08 279.05 C 262.87 278.96 263.67 279.19 264.29 279.69 C 264.91 280.19 265.31 280.91 265.4 281.7 C 265.48 282.49 265.25 283.29 264.76 283.91 L 256.83 293.82 L 248.9 303.73 C 248.4 304.35 247.68 304.75 246.89 304.84 C 246.1 304.93 245.3 304.7 244.68 304.2 C 244.06 303.7 243.66 302.98 243.57 302.19 C 243.49 301.4 243.72 300.6 244.21 299.98 L 252.14 290.07 L 260.07 280.16 Z " fill="rgb(206,158,249)"/><path d=" M 233.04 428.34 C 232.54 428.96 231.82 429.36 231.03 429.44 C 230.24 429.53 229.44 429.3 228.82 428.81 C 228.2 428.31 227.8 427.58 227.72 426.79 C 227.63 426 227.86 425.21 228.35 424.59 L 244.21 404.76 L 260.07 384.94 C 260.57 384.32 261.29 383.92 262.08 383.83 C 262.87 383.75 263.67 383.98 264.29 384.47 C 264.91 384.97 265.31 385.69 265.4 386.48 C 265.48 387.27 265.25 388.07 264.76 388.69 L 248.9 408.51 L 233.04 428.34 Z " fill="rgb(206,158,249)"/><path d=" M 260.07 411.56 C 260.57 410.94 261.29 410.54 262.08 410.45 C 262.87 410.37 263.67 410.6 264.29 411.09 C 264.91 411.59 265.31 412.31 265.4 413.1 C 265.48 413.9 265.25 414.69 264.76 415.31 L 256.83 425.22 L 248.9 435.13 C 248.4 435.75 247.68 436.15 246.89 436.24 C 246.1 436.33 245.3 436.1 244.68 435.6 C 244.06 435.1 243.66 434.38 243.57 433.59 C 243.49 432.8 243.72 432.01 244.21 431.38 L 252.14 421.47 L 260.07 411.56 Z " fill="rgb(206,158,249)"/><path d=" M 228.35 561.65 L 244.21 541.83 L 260.07 522.01 C 260.57 521.39 261.29 520.99 262.08 520.9 C 262.87 520.81 263.67 521.04 264.29 521.54 C 264.91 522.04 265.31 522.76 265.4 523.55 C 265.48 524.34 265.25 525.13 264.76 525.76 L 248.9 545.58 L 233.04 565.4 C 232.54 566.02 231.82 566.42 231.03 566.51 C 230.24 566.6 229.44 566.37 228.82 565.87 C 228.2 565.37 227.8 564.65 227.72 563.86 C 227.63 563.07 227.86 562.28 228.35 561.65 Z " fill="rgb(206,158,249)"/><path d=" M 244.21 568.45 L 252.14 558.54 L 260.07 548.63 C 260.57 548.01 261.29 547.61 262.08 547.52 C 262.87 547.43 263.67 547.66 264.29 548.16 C 264.91 548.66 265.31 549.38 265.4 550.17 C 265.48 550.96 265.25 551.75 264.76 552.38 L 256.83 562.29 L 248.9 572.2 C 248.4 572.82 247.68 573.22 246.89 573.31 C 246.1 573.39 245.3 573.16 244.68 572.67 C 244.06 572.17 243.66 571.45 243.57 570.66 C 243.49 569.87 243.72 569.07 244.21 568.45 Z " fill="rgb(206,158,249)"/><path d=" M 389.36 116.82 L 373.5 136.65 L 357.65 156.47 C 357.15 157.09 356.42 157.49 355.63 157.58 C 354.84 157.67 354.05 157.44 353.43 156.94 C 352.81 156.44 352.41 155.72 352.32 154.93 C 352.23 154.14 352.46 153.34 352.96 152.72 L 368.82 132.9 L 384.68 113.07 C 385.18 112.45 385.9 112.06 386.69 111.97 C 387.48 111.88 388.27 112.11 388.9 112.61 C 389.52 113.1 389.91 113.83 390 114.62 C 390.09 115.41 389.86 116.2 389.36 116.82 Z " fill="rgb(206,158,249)"/><path d=" M 393.89 388.69 L 378.04 408.51 L 362.18 428.34 C 361.68 428.96 360.96 429.36 360.17 429.44 C 359.37 429.53 358.58 429.3 357.96 428.81 C 357.34 428.31 356.94 427.58 356.85 426.79 C 356.76 426 356.99 425.21 357.49 424.59 L 373.35 404.76 L 389.21 384.94 C 389.71 384.32 390.43 383.92 391.22 383.83 C 392.01 383.75 392.81 383.98 393.43 384.47 C 394.05 384.97 394.45 385.69 394.53 386.48 C 394.62 387.27 394.39 388.07 393.89 388.69 Z " fill="rgb(206,158,249)"/><path d=" M 384.68 253.54 C 385.18 252.92 385.9 252.52 386.69 252.43 C 387.48 252.34 388.27 252.57 388.9 253.07 C 389.52 253.57 389.91 254.29 390 255.08 C 390.09 255.87 389.86 256.67 389.36 257.29 L 373.5 277.11 L 357.65 296.93 C 357.15 297.56 356.42 297.95 355.63 298.04 C 354.84 298.13 354.05 297.9 353.43 297.4 C 352.81 296.91 352.41 296.18 352.32 295.39 C 352.23 294.6 352.46 293.81 352.96 293.19 L 368.82 273.36 L 384.68 253.54 Z " fill="rgb(206,158,249)"/><path d=" M 502.49 118.03 C 502.98 117.41 503.71 117.01 504.5 116.92 C 505.29 116.83 506.08 117.06 506.7 117.56 C 507.32 118.06 507.72 118.78 507.81 119.57 C 507.9 120.36 507.67 121.16 507.17 121.78 L 495.28 136.65 L 483.38 151.51 C 482.89 152.14 482.16 152.53 481.37 152.62 C 480.58 152.71 479.79 152.48 479.17 151.98 C 478.55 151.49 478.15 150.76 478.06 149.97 C 477.97 149.18 478.2 148.39 478.7 147.77 L 490.59 132.9 L 502.49 118.03 Z " fill="rgb(206,158,249)"/><path d=" M 477.72 283.91 C 477.22 284.53 476.5 284.93 475.71 285.01 C 474.92 285.1 474.12 284.87 473.5 284.38 C 472.88 283.88 472.48 283.15 472.4 282.36 C 472.31 281.57 472.54 280.78 473.03 280.16 L 484.93 265.29 L 496.82 250.42 C 497.32 249.8 498.04 249.4 498.83 249.32 C 499.63 249.23 500.42 249.46 501.04 249.96 C 501.66 250.45 502.06 251.18 502.15 251.97 C 502.24 252.76 502.01 253.55 501.51 254.17 L 489.61 269.04 L 477.72 283.91 Z " fill="rgb(206,158,249)"/><path d=" M 502.49 381.83 C 502.98 381.2 503.71 380.81 504.5 380.72 C 505.29 380.63 506.08 380.86 506.7 381.36 C 507.32 381.85 507.72 382.58 507.81 383.37 C 507.9 384.16 507.67 384.95 507.17 385.57 L 495.28 400.44 L 483.38 415.31 C 482.89 415.93 482.16 416.33 481.37 416.42 C 480.58 416.51 479.79 416.28 479.17 415.78 C 478.55 415.28 478.15 414.56 478.06 413.77 C 477.97 412.98 478.2 412.18 478.7 411.56 L 490.59 396.69 L 502.49 381.83 Z " fill="rgb(206,158,249)"/><rect x="290.805" y="6.671" width="5.664" height="86.091" transform="matrix(1,0,0,1,0,0)" fill="rgb(174,31,31)"/><path d=" M 289.149 11.144 L 298.125 11.144 C 298.911 11.144 299.549 11.782 299.549 12.568 L 299.549 59.886 C 299.549 60.672 298.911 61.31 298.125 61.31 L 289.149 61.31 C 288.363 61.31 287.726 60.672 287.726 59.886 L 287.726 12.568 C 287.726 11.782 288.363 11.144 289.149 11.144 Z " fill="rgb(174,31,31)"/><rect x="430.633" y="19.573" width="5.664" height="52.33" transform="matrix(1,0,0,1,0,0)" fill="rgb(174,31,31)"/><path d=" M 426.569 7.671 L 440.36 7.671 C 441.243 7.671 441.96 8.388 441.96 9.271 L 441.96 58.4 C 441.96 59.283 441.243 60.001 440.36 60.001 L 426.569 60.001 C 425.686 60.001 424.969 59.283 424.969 58.4 L 424.969 9.271 C 424.969 8.388 425.686 7.671 426.569 7.671 Z " fill="rgb(174,31,31)"/><g><path d=" M 81.47 636.509 Q 86.902 643.119 104.049 647.277 L 327.602 647.277 Q 339.909 634.879 339.909 619.169 C 339.909 611.896 331.008 608.093 324.526 604.204 Q 306.579 593.436 262.497 586.864 Q 234.838 569.735 217.885 565.327 C 190.718 558.264 155.006 561.674 139.43 569.942 Q 123.855 578.211 104.049 593.017 Q 83.777 596.512 79.931 598.051 Q 76.086 599.589 75.316 619.169 Q 77.798 632.041 81.47 636.509 Z " fill="rgb(30,15,59)"/><circle vector-effect="non-scaling-stroke" cx="133.77297161777858" cy="631.1248388510063" r="24.61326258079353" fill="rgb(38,33,33)"/><circle vector-effect="non-scaling-stroke" cx="133.77297161777898" cy="631.1248388510076" r="19.998275846894757" fill="rgb(151,130,130)"/><circle vector-effect="non-scaling-stroke" cx="133.77297161777807" cy="631.1248388510049" r="16.152453568645768" fill="rgb(100,78,78)"/><circle vector-effect="non-scaling-stroke" cx="301.45082294943427" cy="631.1248388510064" r="24.61326258079356" fill="rgb(38,33,33)"/><circle vector-effect="non-scaling-stroke" cx="301.45082294943506" cy="631.1248388510076" r="19.998275846894728" fill="rgb(151,130,130)"/><circle vector-effect="non-scaling-stroke" cx="301.45082294943336" cy="631.1248388510049" r="16.152453568645797" fill="rgb(100,78,78)"/><path d=" M 215.516 569.487 C 194.364 564.963 165.002 567.325 154.503 572.149 Q 144.003 576.974 135.311 587.633 L 135.311 595.743 L 267.608 595.743 Q 236.249 573.922 215.516 569.487 Z " fill="rgb(152,171,204)"/></g><g><rect x="106.092" y="509.722" width="15.859" height="164.819" transform="matrix(1,0,0,1,0,0)" fill="rgb(142,31,31)"/><circle vector-effect="non-scaling-stroke" cx="114.02106810387062" cy="473.0480156785894" r="110.02106810387068" fill="rgb(48,202,94)"/><circle vector-effect="non-scaling-stroke" cx="109.3486194161495" cy="467.73824895354323" r="100.25085742283187" fill="rgb(40,240,100)"/></g></g></g></svg>